# xmcd
#
# Track frame offsets:
#	150
#	81442
#	109854
#	145444
#	203420
#
# Disc length: 3063 seconds
#
# Revision: 0
# Processed by: cddbd v1.5.2PL0 Copyright (c) Steve Scherf et al.
# Submitted via: audiograbber 1.83.01
#
DISCID=410bf505
DTITLE=Grateful Dead - 93-03-25 Dean Smith Centre, Chapel Hill NC
DYEAR=1900
DGENRE=
TTITLE0=Space
TTITLE1=Long Way To Go Home
TTITLE2=The Other One
TTITLE3=Morning Dew
TTITLE4=The Weight
EXTD=
EXTT0=
EXTT1=
EXTT2=
EXTT3=
EXTT4=
PLAYORDER=
